<?xml version="1.0" encoding="utf-8"?>
<!-- Generator: Adobe Illustrator 28.3.0, SVG Export Plug-In . SVG Version: 6.00 Build 0)  -->
<svg version="1.1" id="Layer_1" xmlns="http://www.w3.org/2000/svg" xmlns:xlink="http://www.w3.org/1999/xlink" x="0px" y="0px"
	 viewBox="0 0 206.19 40.14" style="enable-background:new 0 0 206.19 40.14;" xml:space="preserve">
<style type="text/css">
	.st0{fill:#F6F7DF;}
	.st1{fill:#ED2024;}
	.st2{fill:#FFFFFF;}
	.st3{fill:#050606;}
</style>
<g>
	<path d="M18.58,15.47h0.85v13.57h7.01l-0.38,0.81h-7.48V15.47z"/>
	<path d="M26.23,24.62c0-2.97,2.23-5.06,5.01-5.06c2.93,0,5.01,1.98,5.01,5.46v4.82h-0.81v-4.82c0-3.02-1.74-4.67-4.21-4.67
		c-2.19,0-4.16,1.57-4.16,4.25c0,2.27,1.4,4.48,4.74,4.48h1.72l-0.38,0.76h-1.4C28.2,29.85,26.23,27.43,26.23,24.62z"/>
	<path d="M44.55,15.47h4.29c2.97,0,4.95,1.87,4.95,4.5c0,2.59-1.98,4.46-4.95,4.46h-1.08l-0.4-0.81h1.49c2.51,0,4.08-1.51,4.08-3.65
		c0-2.19-1.57-3.7-4.08-3.7H45.4v13.57h-0.85V15.47z"/>
	<path d="M54.43,24.71c0-2.72,1.93-5.14,5.01-5.14c2.72,0,4.67,2.02,4.67,4.52c0,1.38-0.57,2.23-1.36,3.4h-1
		c0.85-1.21,1.51-2.17,1.51-3.4c0-2-1.47-3.74-3.82-3.74c-2.55,0-4.16,2.04-4.16,4.33s1.59,4.4,4.91,4.4h3.46l-0.38,0.76h-3.12
		C56.45,29.85,54.43,27.41,54.43,24.71z"/>
	<path d="M65.87,26.56v-9.37h0.81v2.59h3.63v0.77h-3.63v6.01c0,1.93,1.04,2.53,2.46,2.53h1.44l-0.38,0.76h-1.13
		C67.04,29.85,65.87,28.68,65.87,26.56z"/>
	<path d="M71.63,17.1c0-0.4,0.32-0.7,0.72-0.7s0.72,0.3,0.72,0.7c0,0.42-0.32,0.72-0.72,0.72S71.63,17.53,71.63,17.1z M71.95,19.78
		h0.81v10.07h-0.81V19.78z"/>
	<path d="M75.09,26.56v-9.37h0.81v2.59h3.63v0.77H75.9v6.01c0,1.93,1.04,2.53,2.46,2.53h1.44l-0.38,0.76H78.3
		C76.26,29.85,75.09,28.68,75.09,26.56z"/>
	<path d="M80.12,24.71c0-2.72,1.93-5.14,5.01-5.14c2.72,0,4.67,2.02,4.67,4.52c0,1.38-0.57,2.23-1.36,3.4h-1
		c0.85-1.21,1.51-2.17,1.51-3.4c0-2-1.47-3.74-3.82-3.74c-2.55,0-4.16,2.04-4.16,4.33s1.59,4.4,4.91,4.4h3.46l-0.38,0.76h-3.12
		C82.14,29.85,80.12,27.41,80.12,24.71z"/>
	<path d="M98.98,15.47h0.49l5.29,11.83L110,15.47h0.47l2.12,14.38h-0.85l-1.81-12.19l-5.08,11.38h-0.23l-5.12-11.43l-1.81,12.23
		h-0.85L98.98,15.47z"/>
	<path d="M113.8,24.62c0-2.97,2.23-5.06,5.01-5.06c2.93,0,5.01,1.98,5.01,5.46v4.82h-0.81v-4.82c0-3.02-1.74-4.67-4.21-4.67
		c-2.19,0-4.16,1.57-4.16,4.25c0,2.27,1.4,4.48,4.74,4.48h1.72l-0.38,0.76h-1.4C115.78,29.85,113.8,27.43,113.8,24.62z"/>
	<path d="M125.76,17.1c0-0.4,0.32-0.7,0.72-0.7s0.72,0.3,0.72,0.7c0,0.42-0.32,0.72-0.72,0.72S125.76,17.53,125.76,17.1z
		 M126.08,19.78h0.81v10.07h-0.81V19.78z"/>
	<path d="M128.54,29.08h1.89c1.93,0,3.29-1.02,3.29-2.76c0-0.91-0.38-1.68-2.29-3.04c-1.8-1.3-2.78-2.1-2.68-3.5h0.81
		c-0.11,1.08,0.7,1.7,2.32,2.87c1.98,1.44,2.66,2.32,2.66,3.67c0,2.1-1.7,3.53-3.93,3.53h-1.68L128.54,29.08z"/>
	<path d="M135.59,24.84c0-2.85,2.04-5.27,5.2-5.27s5.2,2.42,5.2,5.27s-2.04,5.23-5.2,5.23S135.59,27.68,135.59,24.84z M140.79,29.28
		c2.68,0,4.35-2.06,4.35-4.46c0-2.4-1.68-4.46-4.35-4.46c-2.68,0-4.35,2.06-4.35,4.46C136.44,27.21,138.12,29.28,140.79,29.28z"/>
	<path d="M152,19.57c2.53,0,4.29,1.87,4.29,4.67v5.61h-0.81v-5.61c0-2.32-1.42-3.89-3.48-3.89c-2.08,0-3.48,1.57-3.48,3.89v5.61
		h-0.81v-5.61C147.71,21.44,149.46,19.57,152,19.57z"/>
</g>
<rect x="161.61" y="18.01" class="st0" width="15.72" height="12.45"/>
<polygon class="st1" points="159.37,18.01 179.57,18.01 169.8,8.24 "/>
<ellipse class="st2" cx="165.05" cy="21.44" rx="1.7" ry="2.24"/>
<rect x="167.46" y="24.23" class="st3" width="3.79" height="6.23"/>
<ellipse class="st2" cx="173.46" cy="21.44" rx="1.7" ry="2.24"/>
<circle class="st2" cx="170.54" cy="27.34" r="0.48"/>
</svg>
