<?xml version="1.0" encoding="utf-8"?>
<!-- Generator: Adobe Illustrator 28.2.0, SVG Export Plug-In . SVG Version: 6.00 Build 0)  -->
<svg version="1.1" id="Layer_1" xmlns="http://www.w3.org/2000/svg" xmlns:xlink="http://www.w3.org/1999/xlink" x="0px" y="0px"
	 viewBox="0 0 190.85 40.14" style="enable-background:new 0 0 190.85 40.14;" xml:space="preserve">
<style type="text/css">
	.st0{fill:#AB1F29;}
	.st1{fill:#FFFFFF;stroke:#000000;stroke-width:0.561;stroke-linecap:round;stroke-linejoin:round;stroke-miterlimit:10;}
	.st2{fill:#FFFFFF;stroke:#000000;stroke-width:0.25;stroke-linecap:round;stroke-linejoin:round;stroke-miterlimit:10;}
</style>
<g>
	<path d="M4.88,16.22h3.5v14.94h8.02l-0.92,3.28H4.88V16.22z"/>
	<path d="M16.43,27.74c0-3.93,2.93-6.62,6.76-6.62c3.85,0,6.67,2.66,6.67,6.76v6.57H26.5v-6.43c0-2.34-1.48-3.63-3.34-3.63
		c-1.91,0-3.31,1.43-3.31,3.36c0,1.94,1.43,3.5,3.85,3.5h1.45l-0.94,3.2h-0.78C19.28,34.44,16.43,31.56,16.43,27.74z"/>
	<path d="M38.13,16.22h6.54c4.17,0,7,2.69,7,6.43c0,3.71-2.83,6.41-7,6.41h-0.7l-0.92-3.28h1.61c2.21,0,3.5-1.29,3.5-3.12
		c0-1.8-1.29-3.15-3.5-3.15h-3.04v14.94h-3.5V16.22z"/>
	<path d="M52.12,27.71c0-3.69,2.75-6.57,6.59-6.57c3.82-0.03,6.3,2.69,6.3,5.63c0,1.02-0.35,2.1-0.92,2.96h-3.5
		c0.59-0.83,0.94-1.64,0.94-2.53c0-1.62-1.21-2.83-2.83-2.83c-1.88,0-3.18,1.45-3.18,3.28c0,1.91,1.43,3.58,4.25,3.58h5.2l-0.92,3.2
		h-4.63C55.16,34.44,52.12,31.56,52.12,27.71z"/>
	<path d="M66.71,29.49V18.67h3.37v2.77h3.69v3.2h-3.69v4.39c0,1.45,0.67,2.21,2.15,2.21h1.96l-0.94,3.2h-1.56
		C68.38,34.44,66.71,32.48,66.71,29.49z"/>
	<path d="M75.27,18.16c0-1.08,0.86-1.88,1.96-1.88c1.13,0,1.99,0.81,1.99,1.88c0,1.13-0.83,1.94-1.99,1.94
		C76.11,20.09,75.27,19.29,75.27,18.16z M75.57,21.44h3.37v13h-3.37V21.44z"/>
	<path d="M81.09,29.49V18.67h3.37v2.77h3.69v3.2h-3.69v4.39c0,1.45,0.67,2.21,2.15,2.21h1.96l-0.94,3.2h-1.56
		C82.75,34.44,81.09,32.48,81.09,29.49z"/>
	<path d="M89.03,27.71c0-3.69,2.75-6.57,6.59-6.57c3.82-0.03,6.3,2.69,6.3,5.63c0,1.02-0.35,2.1-0.92,2.96h-3.5
		c0.59-0.83,0.94-1.64,0.94-2.53c0-1.62-1.21-2.83-2.83-2.83c-1.88,0-3.18,1.45-3.18,3.28c0,1.91,1.43,3.58,4.25,3.58h5.2l-0.92,3.2
		h-4.63C92.07,34.44,89.03,31.56,89.03,27.71z"/>
	<path d="M112.28,16.22h1.37l5.87,11.36l5.71-11.36h1.4l3.53,18.22h-3.5l-1.88-10.09l-4.84,9.39h-1l-4.76-9.29l-1.94,9.99h-3.5
		L112.28,16.22z"/>
	<path d="M130.75,27.74c0-3.93,2.93-6.62,6.76-6.62c3.85,0,6.68,2.66,6.68,6.76v6.57h-3.37v-6.43c0-2.34-1.48-3.63-3.34-3.63
		c-1.91,0-3.31,1.43-3.31,3.36c0,1.94,1.43,3.5,3.85,3.5h1.45l-0.94,3.2h-0.78C133.6,34.44,130.75,31.56,130.75,27.74z"/>
	<path d="M146.01,18.16c0-1.08,0.86-1.88,1.96-1.88c1.13,0,1.99,0.81,1.99,1.88c0,1.13-0.83,1.94-1.99,1.94
		C146.85,20.09,146.01,19.29,146.01,18.16z M146.31,21.44h3.37v13h-3.37V21.44z"/>
	<path d="M151.37,31.24h2.53c1.75,0,2.8-0.73,2.8-1.88c0-1-0.86-1.72-2.31-2.85c-1.99-1.59-3.2-2.96-2.75-5.06h3.53
		c-0.19,1.21,0.54,1.78,2.15,3.12c1.86,1.53,2.83,2.75,2.83,4.76c0,3.28-2.61,5.11-6.19,5.11h-1.67L151.37,31.24z"/>
	<path d="M161.19,27.95c0-3.9,2.85-6.84,6.89-6.84c4.06,0,6.92,2.93,6.92,6.84c0,3.88-2.85,6.81-6.92,6.81
		C164.05,34.76,161.19,31.83,161.19,27.95z M168.08,31.48c2.15,0,3.5-1.64,3.5-3.55s-1.35-3.55-3.5-3.55
		c-2.13,0-3.47,1.64-3.47,3.55S165.96,31.48,168.08,31.48z"/>
	<path d="M182.43,21.12c3.47,0,5.84,2.31,5.84,6v7.32h-3.36v-7.32c0-1.72-1-2.75-2.48-2.75c-1.53,0-2.5,1.02-2.5,2.75v7.32h-3.36
		v-7.32C176.56,23.43,178.9,21.12,182.43,21.12z"/>
</g>
<polygon class="st0" points="105.69,19.68 119.31,4.05 133.11,19.68 "/>
<rect x="127.11" y="31.17" class="st0" width="1.98" height="3.27"/>
<circle cx="128.79" cy="32.81" r="0.17"/>
<circle class="st1" cx="113.79" cy="21.9" r="1.46"/>
<line class="st2" x1="113.79" y1="20.44" x2="113.79" y2="23.36"/>
<line class="st2" x1="112.33" y1="21.9" x2="115.25" y2="21.9"/>
</svg>
